<?xml version="1.0" encoding="utf-8"?>
<!-- Generator: Adobe Illustrator 22.0.1, SVG Export Plug-In . SVG Version: 6.00 Build 0)  -->
<svg version="1.1" id="Слой_1" xmlns="http://www.w3.org/2000/svg" xmlns:xlink="http://www.w3.org/1999/xlink" x="0px" y="0px"
	 viewBox="0 0 12 12" style="enable-background:new 0 0 12 12;" xml:space="preserve">
<path d="M6.1,1.3c2.6,0,4.8,2.1,4.8,4.8s-2.1,4.8-4.8,4.8S1.3,8.6,1.3,6.1S3.3,1.3,6.1,1.3 M6.1,0.3c-3.2,0-5.8,2.6-5.8,5.8
	s2.6,5.8,5.8,5.8s5.8-2.6,5.8-5.8C11.8,2.8,9.1,0.3,6.1,0.3z"/>
<path d="M6.1,4.8c0.6,0,1.2,0.6,1.2,1.3c0,0.6-0.6,1.2-1.2,1.2c-0.7,0-1.3-0.6-1.3-1.2C4.8,5.3,5.3,4.8,6.1,4.8 M6.1,3.8
	c-1.2,0-2.2,1-2.2,2.2s0.9,2.3,2.2,2.3s2.2-1,2.2-2.3S7.3,3.8,6.1,3.8z"/>
</svg>
